<?xml version="1.0" encoding="utf-8"?>
<!-- Generator: Adobe Illustrator 27.4.0, SVG Export Plug-In . SVG Version: 6.00 Build 0)  -->
<svg version="1.1" id="LOGO_INVIVOO_-_BEYOND_TECH" xmlns="http://www.w3.org/2000/svg" xmlns:xlink="http://www.w3.org/1999/xlink"
	 x="0px" y="0px" viewBox="0 0 907.09 204.09" style="enable-background:new 0 0 907.09 204.09;" xml:space="preserve">
<style type="text/css">
	.st0{display:none;}
	.st1{display:inline;fill-rule:evenodd;clip-rule:evenodd;fill:url(#LYNX_00000183940300553077757070000013395384164347760305_);}
	.st2{display:inline;fill-rule:evenodd;clip-rule:evenodd;fill:url(#BEAR_00000070834657966332177500000015378943461865483178_);}
	.st3{display:inline;fill-rule:evenodd;clip-rule:evenodd;fill:url(#BULL_00000082363269043396603720000015537751228311882174_);}
	.st4{display:none;fill:#FFFFFF;}
	.st5{font-family:'LiberationSans-Italic';}
	.st6{font-size:41.2363px;}
	.st7{letter-spacing:48.81;}
	.st8{fill:none;}
	.st9{letter-spacing:79.97;}
	.st10{display:none;fill:#B7B7B7;}
	.st11{letter-spacing:123.58;}
	.st12{display:inline;fill:#FFFFFF;}
	.st13{letter-spacing:78.93;}
	.st14{fill:#FFFFFF;}
	.st15{fill-rule:evenodd;clip-rule:evenodd;fill:#FFFFFF;}
	.st16{fill-rule:evenodd;clip-rule:evenodd;fill:url(#CRÊTE_00000059282489230947306450000009264217997209260420_);}
	.st17{fill-rule:evenodd;clip-rule:evenodd;fill:url(#HOVER_00000044885566241986321580000002192899547922092947_);}
	.st18{fill-rule:evenodd;clip-rule:evenodd;fill:url(#O_00000100355482508825473130000010229429969935875512_);}
	.st19{clip-path:url(#N_SHADOW_00000117637724032018045310000015869340420437517242_);}
	.st20{clip-path:url(#V_SHADOW_00000181049362646191793490000011788402083962643366_);}
</style>
<g id="ZANIMOO" class="st0">
	
		<linearGradient id="LYNX_00000183239370900735915460000015804371328359368090_" gradientUnits="userSpaceOnUse" x1="604.4142" y1="309.1766" x2="735.249" y2="309.1766">
		<stop  offset="0" style="stop-color:#601C10"/>
		<stop  offset="1" style="stop-color:#AB3F23"/>
	</linearGradient>
	
		<path id="LYNX" style="display:inline;fill-rule:evenodd;clip-rule:evenodd;fill:url(#LYNX_00000183239370900735915460000015804371328359368090_);" d="
		M727.52,226.88c2.66,0.09,3.73,3.47,1.28,5.85c-2.46,2.46-3.21,6.53-4.77,7.97c-2.12,1.96-6.13-0.21-4.34-4.78
		c1.02-2.6,2.54-5.02,4.47-7.04C725.14,227.86,725.96,226.87,727.52,226.88z M612.27,226.88c1.26,0.08,2.23,1.04,3.15,2
		c3.75,3.93,6.93,10.27,3.71,12.19c-1.85,1.1-3.91-0.48-4.75-2.77c-1.37-3.59-5.18-6.04-5.26-8.33
		C609.07,228.31,610.36,226.82,612.27,226.88z M668.99,268.38c0.56,0,2.08,0,2.45,0.01c4.63,0.08,9.24,0.56,13.78,1.45
		c0,0,1.97-4.29,4.63-8.02c5.68-7.97,13.75-13.85,21.49-19.9c0,0-1.52-4.87-0.79-9.53c0,0,0.87-2.62,3.12-2.6
		c1.84,0.16,3.07,1.37,2.75,3.97c-0.28,2.46-0.35,5.17,1.1,6.85c0,0,1.47,2.72-0.8,4.66c-10.27,8.67-21.84,16.14-26.89,29.11
		c0,0-1.37,2.28-4.8,1.54c-5.01-1.05-10.11-1.54-15.24-1.55c0,0-1.17,0.01-1.55,0.01c-5.05,0.09-10.09,0.71-15.01,1.83
		c0,0-2.53,0.49-3.75-2.56c-4.98-12.06-16.42-19.87-26.43-28.23c-1.5-1.26-2.19-3.17-0.81-5.02c1.64-2.28,0.3-5.6,0.9-8.27
		c0.38-1.72,2.87-2.35,3.24-2.33c3.99,0.57,3.58,7.86,1.85,12.09c10.15,8.04,20.8,16,26.14,27.94
		C659.15,268.88,664.08,268.42,668.99,268.38z M669.52,358.93c-2.42,3.29-6.55,5.9-11.71,4.49c-3.1-0.84-3.4-7.48,1.19-5.91
		c0.52,0.18,2.44,0.64,4.02-0.1c3.44-1.62,2.73-7.61,6.63-7.56c0.04,0,0.07,0,0.11,0.01c0.13-0.01,0.27-0.01,0.41-0.01
		c4.02,0.26,3,10.03,10.52,7.62c1.23-0.34,0.74-0.66,2.36,0.28c2.21,1.27,1.9,4.97-1.76,5.79c-3.38,0.76-7.09,0.01-9.78-2.36
		C670.79,360.55,670.12,359.77,669.52,358.93z M732.03,239.6c3.07,0.47,3.26,4.7-0.27,6.18c-1.89,0.83-4.09,3-4.09,3
		c0.06,0.3,0.11,0.6,0.17,0.89c2.75,15.74-1.34,32.2-7.62,47.24c0,0,4.22,6.65,7.31,12.08c4.06,7.15,8.6,14.42,7.58,23.02
		c-1.16,9.82-5.05,19.24-9.17,28.44c0,0,1.72,1.08,2.21,2.42c0.82,2.25-1.85,4.83-4.49,3.6c-3.43-1.6-4.77-4.99-3.19-8.48
		c4.17-9.29,8.7-18.98,8.84-28.83c0.14-10.05-8.19-19.92-14.86-29.97c0,0-0.68-2.34,0.53-5.3c5.9-14.52,9.84-30.62,6.56-45.08
		c0,0,0.24-2.35,1.66-4.04c1.99-2.37,4.69-4.12,7.64-5.04C730.83,239.73,730.73,239.56,732.03,239.6z M608.31,239.62
		c3.85,0.88,7.19,3.48,9.24,6.75c0,0,0.51,2.12,0.11,4.35c-2.69,15.37,1.77,31.69,7.84,45.25c0,0,0.42,2.03-1.1,4.34
		c-6.36,9.78-15.42,19.55-13.93,31.26c1.24,9.69,5,19.07,9.38,27.98c0,0,0.73,1.94-0.59,3.9c-1.41,2.1-4.74,3.43-4.74,3.43
		c-2.99,0.08-4.26-4.23-1.11-5.86c1.11-0.62-0.34-1.85-1.02-3.45c-5.04-11.94-10.46-25.08-6.77-35.33
		c3.22-8.96,8.49-17.12,13.75-25.21c0,0-0.53-1.37-1.07-2.76c-5.57-14.52-9.32-30.38-6.4-45.43l-5.28-3.52
		C604.05,244,604.53,239.25,608.31,239.62z M669.72,378.45c-0.19,0.04-0.39,0.07-0.59,0.09c-8.77,0.89-17.78-3.36-22.99-10.7
		c0,0-2.21,1.25-3.48,2.33c-3.89,3.31-6.67,7.79-8.39,12.59c0,0-1.51,2.47-3.63,1.88c-3.33-0.92-1.23-6.67,1.07-10.58
		c3.43-5.83,8.44-11.61,14.86-13.1c0,0,0.16-0.08,0.84-0.06c2.14,0.23,2.98,2.72,4.48,4.59c4.07,5.07,10.92,8.19,17.36,6.97
		c0,0,0.02,0,0.07,0c1.55-0.28,3.5,0.27,5.37,0.1c6.26-0.59,11.88-4.54,15.13-10.17c0,0,1.21-1.54,2.79-1.49
		c1.84,0.18,3.49,1.32,5.1,2.37c6.16,3.98,10.63,10.18,13.15,17.13c1.19,3.29-4.06,6.35-5.75,1.74c-2.23-5.9-6.11-11.19-11.54-14.37
		c0,0-4.99,6.91-12.33,9.48C677.53,378.54,673.48,379.02,669.72,378.45z M715.73,364.94c2.54,0.18,4.03,3.56,5.73,6.26
		c3.27,5.18,6.12,10.68,7.43,16.63c0,0,0.16,2.27-1.36,3.2c-1.8,1.11-4.04-0.09-4.7-2.74c-1.01-3.92-2.79-7.6-4.79-11.13
		c0,0-0.63,1.44-1.8,1.96c-1.85,0.83-4.32-0.66-4.22-2.94l0.58-8.45C712.76,366.13,713.77,364.9,715.73,364.94z M624.16,364.94
		c1.47,0.12,2.68,1.3,2.82,2.79l0.58,8.45c0.12,2.9-4.91,4.83-5.92,0.87l-0.01-0.04c-2.2,3.82-4.13,7.84-5.08,12.12
		c0,0-0.45,1.52-1.69,2.08c-2.29,1.04-4.89-0.97-3.73-5.15c2.02-7.26,5.96-13.98,10.46-19.93
		C621.6,366.13,622.55,364.89,624.16,364.94z"/>
	
		<linearGradient id="BEAR_00000162330087575761024040000009483295346071684234_" gradientUnits="userSpaceOnUse" x1="384.6761" y1="326.338" x2="539.3433" y2="326.338">
		<stop  offset="0" style="stop-color:#2B32B2"/>
		<stop  offset="1" style="stop-color:#1488CC"/>
	</linearGradient>
	
		<path id="BEAR" style="display:inline;fill-rule:evenodd;clip-rule:evenodd;fill:url(#BEAR_00000162330087575761024040000009483295346071684234_);" d="
		M397.84,265.51c5.43,0.18,10.73,3,14.74,6.64c2.06,1.87-0.29,6.62-4.29,3.66c-4.82-3.51-11.14-7.2-14.15-2.56
		c-3.74,5.77-4.81,13.55-3.72,19.54c0.63,3.45,2.44,6.86,5.56,8.6c0,0,1.43,0.98,1.42,2.43c-0.02,2.13-2.56,3.4-4.94,1.89
		c-8.19-5.19-8.82-17.53-6.87-25.74c1.61-6.78,4.66-14.29,11.79-14.48C397.61,265.5,397.61,265.5,397.84,265.51z M526.51,265.51
		c10.48,0.27,13.38,16.98,12.75,25.43c-0.45,6.05-3.21,12.19-8.51,15.19c-2.55,1.44-6.53-2.48-2.39-5c6-3.75,5.96-12.48,4.93-18.12
		c-0.92-5.02-2.26-12.21-7.22-11.99c-4.12,0.18-7.98,2.81-11.19,5.33c0,0-1.81,1-3.14,0.19c-1.65-1.01-1.67-3.49,0.3-4.96
		C516.35,268.36,521.23,265.48,526.51,265.51z M462.21,328.71c0,0-1.2,0-1.61,0.01c-11.48,0.33-23.11,6.51-27.05,17.89
		c-1.01,3.06-7.34,2.81-4.5-3.62c5.3-11.98,18.12-19.58,32.01-19.8c0.26,0,1.28,0,1.46,0c14.15,0.13,28.48,7.83,33.12,21.86
		c0,0-0.27,4.7-3.56,3.49c-2.32-0.85-2.61-4.5-4.54-7.38C482.12,333.09,472.27,328.74,462.21,328.71z M459.25,343.82
		c-0.07,3.3,1.12,6.38,3.03,8.99c0,0,3.67-4.66,3.33-8.97C463.79,344.15,461.39,344.09,459.25,343.82z M457.76,337.91
		c2.89,0.13,5.14,0.82,8.83,0.1c5.15-0.87,5.99,10.18-0.52,19.33c2.41,2.59,4.97,5,7.62,7.33c1.76,1.55,4.08,2.02,4.98,4.92
		c0,0,0.26,1.96-0.96,2.91c-1.72,1.34-3.95-0.49-6.22-2.43c-3.07-2.65-6.05-5.4-8.85-8.33c0,0-7.83,7.51-12.65,10.86
		c0,0-1.93,0.9-3.21-0.05c-1.59-1.18-1.34-3.45,1-5.16c3.96-2.92,7.69-6.15,10.99-9.79c0,0-4.92-6.04-5.06-11.04
		C453.68,342.95,452.93,337.8,457.76,337.91z M453.55,261.2c2.47,0.02,15.12,0,17.55,0c11.92,0.05,24.18,2.99,32.63,10.9
		c5.65,5.29,9.19,12.43,12.32,19.49c7.84,17.67,15.73,36.24,16.4,54.5c0.23,6.32-1.69,12.55-6.73,17.43
		c-6.42,6.21-14.29,10.85-22.44,14.66c-0.55,0.26-2.09,0.84-3.25,0.09c-1.89-1.21-1.87-3.79,1.48-5.36
		c9.07-4.34,18.74-9.25,23.84-17.4c0.14-0.22,0.26-0.45,0.37-0.68c3.17-6.6,0.81-15.28-1.13-23.15
		c-3.84-15.51-9.59-30.54-16.81-44.85c-4.88-9.67-13.95-16.91-24.74-19.06c-6.57-1.31-13.38-0.95-20.08-0.92
		c-0.44,0-2.25,0-2.9-0.01c-16.74-0.27-35.02,2.3-43.95,19.99c-8.86,17.55-16.67,36.46-18.87,55.8c-0.6,5.27-0.76,10.76,2.88,14.95
		c6.16,7.09,14.83,11.9,23.4,15.87c0,0,1.59,0.98,1.6,2.49c0.01,2.12-1.78,3.53-5.11,1.96c-12.51-5.99-27.09-13.79-28.44-26.9
		c-1.55-15.11,4.66-30.47,10.3-45.03c6.31-16.31,12.79-33.25,27.9-40.38C437.08,262.14,445.45,261.18,453.55,261.2z M462.23,385.96
		c0,0,0.47-0.01,0.68-0.02c10.31-0.33,20.69-4.97,26.09-14.03c1.78-2.98,2.89-2.43,3.12-2.42c1.32,0.12,1.43,0.45,1.78,0.79
		c2.45,2.41-1.88,7.79-6.1,11.66c-6.96,6.37-16.5,9.51-26.1,9.54c0,0-6.27-0.39-9.16-1.05c-9.3-2.12-17.91-7.84-22.6-16.12
		c-1.12-1.98-0.72-4.76,2.05-4.83c0.06,0,0.12,0.01,0.18,0.01c2.62,0.28,3.6,4.06,5.8,6.48
		C443.96,382.59,452.99,385.93,462.23,385.96z"/>
	
		<linearGradient id="BULL_00000139252520910575389740000016641692845374039961_" gradientUnits="userSpaceOnUse" x1="171.8376" y1="311.9719" x2="337.9064" y2="311.9719">
		<stop  offset="0" style="stop-color:#0B693A"/>
		<stop  offset="1" style="stop-color:#15BE96"/>
	</linearGradient>
	
		<path id="BULL" style="display:inline;fill-rule:evenodd;clip-rule:evenodd;fill:url(#BULL_00000139252520910575389740000016641692845374039961_);" d="
		M236.15,259.57c5.32-0.73,19.93-0.96,20.04-0.96c18.33,0.19,42.51,3.13,48.42,20.04c0.61,1.75,0.99,3.58,1.15,5.42
		c0.2,2.33,0.07,4.7-0.53,6.95c0,0-0.38,1.12-1.07,1.64c-2.08,1.59-4.99-0.58-4.38-3.95c0.72-4.21-0.27-8.68-2.79-12.19
		c-5.71-7.93-16.23-10.19-25.22-11.31c-5.22-0.65-10.29-0.94-15.54-0.89c-0.33,0.04-9.65,0.16-12.76,0.36
		c-14.7,0.97-32.47,4.34-33.77,19.87c-0.28,3.37,1.56,7.28-1.32,8.48c-4.36,1.82-6.01-8.65-2.62-16.14
		C210.84,265.66,225.06,261.09,236.15,259.57z M196.74,232.47c3.93,0.5,1.5,6.95,0.27,12.06c-1.96,8.19-4.32,16.99-1.85,24.97
		c0.06,0.19,0.12,0.37,0.19,0.56c0.81,2.17,3.28,3.5,5.83,3.02c0,0,2.67,0.02,3.31,1.93c1.29,3.84-7.74,5.88-12.19,1.11
		c-5.89-6.32-3.99-17.39-2.33-26.46l0.02-0.12c-5.76,8.83-12.02,18.34-12.6,28.25c-0.48,8.27,9.43,14.21,17.89,15.81
		c0,0,2.64,1.13,2.34,3.27c-0.69,4.86-10.96,0.59-15.63-2.16c-7.49-4.42-12-13.06-9.46-22.68c3.71-14.08,12.51-26.67,21.45-38.18
		C194,233.85,194.89,232.4,196.74,232.47z M313.44,232.47c1.66,0.24,1.84,0.87,2.86,2.2c8.94,11.74,17.73,24.43,21.03,38.23
		c1.56,6.52-0.08,13.76-5.01,18.37c-4.57,4.27-10.6,6.79-16.79,8.03c0,0-1.15,0.22-2.09-0.33c-2.19-1.29-1.88-4.7,1.78-5.55
		c9.72-2.32,18.98-8.67,16.46-19.16c-2.13-8.88-6.97-16.91-11.98-24.67c0,0,1.77,14.84,0.91,19.42c-1.08,5.73-6.03,11.11-12.97,9.84
		c-3.27-0.6-3.29-6.32,1.57-5.64c6.9,0.84,6.65-12.82,4.6-23.41c-0.88-4.53-2-9.01-3.36-13.42
		C310.43,236.36,310.34,232.31,313.44,232.47z M257.62,391.38c-4.25,0.31-9.8-0.22-12.86-0.8c-9.64-1.82-19.08-9.11-19.74-19.96
		c-0.19-3.2,1.01-7.27,0.39-8.58c-4.65-9.63-14.71-15.7-20.71-24.54c-6.06-8.93-7.45-20.43-5.66-31.27l0.04-0.25
		c-7.59,5.81-15.08,12.94-18.4,21.47c-0.54,1.37-1.68,2.3,0.86,2.61c4.35,0.5,9,1.12,12.98-0.51c0,0,2.32-0.49,3.4,0.91
		c1.24,1.6,0.41,4.05-2.15,4.81c-5.56,1.65-12.02,1.88-17.39,0.12c-5.14-1.68-3.71-9.68-1.14-14.04
		c5.97-10.1,14.87-19.02,24.74-24.19c0,0-0.01-0.43,1.71-0.4c3.44,0.45,1.86,5.74,1.08,10.44c-1.98,11.85,1.07,24.68,10.27,33.45
		c6.28,5.98,12.66,11.79,16.35,20.52c0,0,0.26,1.66-0.12,3.35c-1.15,5.42-0.38,11.51,3.8,15.47c5.22,4.95,13.01,5.62,19.75,5.64
		c2.52-0.01,5.05-0.14,7.54-0.51c0.77-0.11,1.53-0.25,2.28-0.41c8.67-1.86,16.92-10.1,13.43-21.34c0,0,3.75-11.31,11.42-18.18
		c6.9-6.09,13.44-12.71,15.38-22.25c1.52-7.47,0.46-15.23-1.52-22.51c0,0,0.19-3.92,3.23-3.64c1.11,0.23-0.61-0.72,2.97,1.45
		c11.01,6.67,21.29,16.84,25.07,27.76c1.3,3.75,0.56,9.02-5.32,9.79c-5.51,0.68-11.41,1.08-16.31-0.81c0,0-2.08-1.26-1.87-3.07
		c0.42-3.58,5.76-1.62,9.73-1.48c2.82,0.1,5.69,0.06,8.42-0.52c0.41-0.1,0.22-0.19,0.21-0.28c-0.12-5.41-5.42-10.6-10.13-15.6
		c-2.72-2.88-5.63-5.58-8.76-8.01c0,0,1.36,8.04,0.45,15.15c-1.48,11.6-9.67,20.79-18.46,29.05c-3.6,3.39-6.38,7.63-8.51,12.14
		c0,0,1.55,12.98-3.46,19.56C275.63,388.5,266.6,390.99,257.62,391.38z"/>
</g>
<g>
	<g id="TAGLINE">
		<rect class="st0" width="907.09" height="204.09"/>
		<text transform="matrix(0.9629 0 0 1 118.1075 193.7591)" class="st4 st5 st6 st7">BEYOND TECH</text>
		<rect x="32.64" y="158.99" class="st8" width="841.8" height="47.31"/>
		<text transform="matrix(0.9629 0 0 1 149.3199 193.505)" class="st4 st5 st6 st9">SOFTWARE</text>
		<rect x="11.48" y="158.99" class="st8" width="884.12" height="47.31"/>
		<text transform="matrix(0.9629 0 0 1 148.2459 193.5046)" class="st10 st5 st6 st11">LONDON</text>
		<rect x="-7.47" y="158.99" class="st8" width="841" height="47.31"/>
		<text transform="matrix(0.9629 0 0 1 104.8776 193.5047)" class="st0"><tspan x="0" y="0" class="st12 st5 st6 st9">BORDE</tspan><tspan x="521.93" y="0" class="st12 st5 st6 st13">A</tspan><tspan x="626.25" y="0" class="st12 st5 st6 st9">UX</tspan></text>
	</g>
	<g id="BEYOND_TECH">
		<path id="B" class="st14" d="M76.08,189.82h6.48c1.72,0,2.88-0.06,3.48-0.18c1.2-0.21,2.18-0.56,2.93-1.06
			c0.75-0.5,1.34-1.15,1.77-1.97c0.43-0.81,0.64-1.67,0.64-2.56c0-1.33-0.42-2.35-1.25-3.04c-0.83-0.69-2.42-1.04-4.77-1.04h-7.22
			L76.08,189.82z M78.82,176.73h5.77c2.76,0,4.74-0.44,5.95-1.32c1.21-0.88,1.82-2.16,1.82-3.85c0-0.8-0.19-1.49-0.56-2.08
			c-0.38-0.58-0.88-1.01-1.5-1.27c-0.63-0.26-1.81-0.4-3.54-0.4h-6.06L78.82,176.73z M71.6,193.04l5.96-28.46h8.81
			c1.61,0,2.8,0.07,3.57,0.19c1.27,0.22,2.34,0.6,3.21,1.15c0.87,0.55,1.55,1.3,2.03,2.25c0.48,0.95,0.72,2,0.72,3.15
			c0,1.57-0.43,2.95-1.29,4.14c-0.86,1.19-2.18,2.1-3.95,2.72c1.54,0.51,2.69,1.26,3.46,2.28c0.76,1.02,1.15,2.2,1.15,3.56
			c0,1.57-0.45,3.07-1.35,4.5c-0.9,1.44-2.09,2.55-3.57,3.33c-1.48,0.78-3.14,1.18-4.96,1.18H71.6z"/>
		<polygon id="E" class="st14" points="145.89,193.04 151.85,164.58 172.39,164.58 171.71,167.82 154.98,167.82 153.11,176.67 
			169.42,176.67 168.74,179.92 152.43,179.92 150.38,189.82 168.3,189.82 167.62,193.04 		"/>
		<path id="Y" class="st14" d="M229.45,193.04l2.29-11.01l-8.76-17.45h4.08l4.19,8.31c0.92,1.81,1.81,3.75,2.68,5.82
			c0.96-1.76,2.26-3.68,3.92-5.77l6.68-8.37h4.54l-13.59,17.75l-2.23,10.72H229.45z"/>
		<path id="O_3_" class="st14" d="M299.95,181.31c0,1.67,0.35,3.2,1.04,4.6c0.69,1.4,1.73,2.49,3.1,3.28
			c1.37,0.79,2.82,1.18,4.33,1.18c1.46,0,2.85-0.35,4.17-1.04c1.32-0.69,2.5-1.66,3.54-2.89c1.04-1.24,1.86-2.76,2.46-4.56
			c0.6-1.81,0.9-3.58,0.9-5.33c0-2.83-0.79-5.09-2.38-6.78c-1.59-1.68-3.54-2.52-5.87-2.52c-2.98,0-5.61,1.27-7.88,3.82
			C301.09,173.62,299.95,177.03,299.95,181.31z M296.21,181.12c0-5.07,1.47-9.18,4.4-12.32c2.93-3.14,6.49-4.71,10.67-4.71
			c3.55,0,6.44,1.15,8.67,3.46c2.23,2.31,3.35,5.41,3.35,9.29c0,2.77-0.56,5.34-1.69,7.71c-0.84,1.77-1.9,3.3-3.18,4.59
			c-1.28,1.29-2.65,2.28-4.12,2.98c-1.94,0.93-4,1.4-6.17,1.4c-2.28,0-4.35-0.54-6.22-1.63c-1.87-1.09-3.29-2.6-4.25-4.55
			C296.69,185.39,296.21,183.32,296.21,181.12z"/>
		<path id="N" class="st14" d="M373.16,193.04l5.96-28.46h3.69l4.8,10.68c1.46,3.26,2.62,6.01,3.48,8.23
			c0.49,1.29,1.06,3.04,1.71,5.24c0.35-2.4,0.79-4.87,1.32-7.42l3.49-16.74h3.71l-5.94,28.46h-3.77l-7.07-16.44
			c-1.26-2.9-2.23-5.46-2.93-7.67c-0.19,1.85-0.57,4.12-1.13,6.82l-3.61,17.3H373.16z"/>
		<path id="D" class="st14" d="M453.9,189.82h4.5c2.03,0,3.84-0.19,5.42-0.56c0.98-0.23,1.82-0.58,2.52-1.03
			c0.92-0.58,1.75-1.35,2.5-2.31c0.98-1.27,1.77-2.71,2.36-4.34c0.59-1.62,0.88-3.47,0.88-5.54c0-2.3-0.4-4.07-1.2-5.31
			c-0.8-1.24-1.83-2.06-3.07-2.46c-0.92-0.3-2.35-0.45-4.29-0.45h-5.03L453.9,189.82z M449.42,193.04l5.94-28.46h8.58
			c2.06,0,3.63,0.15,4.72,0.45c1.55,0.4,2.88,1.12,3.98,2.14c1.1,1.03,1.93,2.31,2.48,3.85c0.56,1.54,0.83,3.27,0.83,5.18
			c0,2.29-0.35,4.38-1.04,6.26c-0.69,1.88-1.6,3.54-2.72,4.97c-1.12,1.43-2.29,2.55-3.51,3.36c-1.22,0.81-2.67,1.41-4.34,1.8
			c-1.27,0.3-2.83,0.45-4.68,0.45H449.42z"/>
		<polygon id="T" class="st14" points="591.87,193.04 597.13,167.82 587.79,167.82 588.47,164.58 610.88,164.58 610.2,167.82 
			600.94,167.82 595.68,193.04 		"/>
		<polygon id="E_1_" class="st14" points="656.63,193.04 662.59,164.58 683.13,164.58 682.45,167.82 665.72,167.82 663.85,176.67 
			680.16,176.67 679.48,179.92 663.18,179.92 661.12,189.82 679.04,189.82 678.36,193.04 		"/>
		<path id="C" class="st14" d="M753.06,183.02l3.77,0.53c-1.19,3.29-2.92,5.77-5.2,7.45c-2.28,1.68-4.83,2.52-7.67,2.52
			c-3.46,0-6.2-1.05-8.22-3.16c-2.03-2.11-3.04-5.13-3.04-9.07c0-5.12,1.54-9.36,4.62-12.72c2.74-2.99,6.15-4.49,10.23-4.49
			c3.02,0,5.46,0.81,7.33,2.43c1.87,1.62,2.95,3.79,3.25,6.52l-3.55,0.33c-0.38-2.06-1.15-3.6-2.32-4.61
			c-1.17-1.02-2.68-1.52-4.53-1.52c-3.48,0-6.3,1.55-8.45,4.64c-1.86,2.67-2.8,5.83-2.8,9.49c0,2.93,0.72,5.16,2.16,6.7
			c1.44,1.54,3.31,2.31,5.61,2.31c1.97,0,3.75-0.64,5.34-1.92C751.18,187.18,752.34,185.36,753.06,183.02z"/>
		<polygon id="H" class="st14" points="807.18,193.04 813.14,164.58 816.93,164.58 814.46,176.4 829.22,176.4 831.68,164.58 
			835.49,164.58 829.55,193.04 825.74,193.04 828.54,179.62 813.8,179.62 810.99,193.04 		"/>
	</g>
	<g id="INVIVOO">
		<g id="O_2">
			<path id="O" class="st15" d="M720.29,29.22c12.78,0.32,25.57,2.17,37.88,5.72c-19.85,5.78-32.05,26.11-27.45,46.56
				c4.78,21.26,25.92,34.64,47.18,29.87c21.26-4.78,34.64-25.92,29.86-47.18c-0.09-0.4-0.18-0.79-0.28-1.18
				c9.53,9.25,17.38,20.07,23.52,31.85c-7.32,20.46-24.64,36.85-47.38,41.96c-35.31,7.93-70.41-14.29-78.35-49.6
				C700.45,65.8,706.73,44.46,720.29,29.22z"/>
			
				<linearGradient id="CRÊTE_00000021121101027272507390000014493947301890242698_" gradientUnits="userSpaceOnUse" x1="730.0524" y1="44.7153" x2="835.8087" y2="44.7153">
				<stop  offset="0" style="stop-color:#EEEEEE"/>
				<stop  offset="1" style="stop-color:#DEDEDE"/>
			</linearGradient>
			
				<path id="CRÊTE_1_" style="fill-rule:evenodd;clip-rule:evenodd;fill:url(#CRÊTE_00000021121101027272507390000014493947301890242698_);" d="
				M730.05,21.01c7.37-5.73,16.09-9.96,25.8-12.15c35.31-7.93,70.41,14.29,78.35,49.6c1.8,8.02,2.05,16.03,0.94,23.71
				c-3.97-6.61-8.49-12.88-13.6-18.65c-22.52-25.46-55.86-39.34-89.36-42.33C731.47,21.13,730.76,21.07,730.05,21.01z"/>
			
				<linearGradient id="HOVER_00000015337982178890428210000012155763707801815951_" gradientUnits="userSpaceOnUse" x1="734.1393" y1="54.3067" x2="833.0359" y2="47.3912">
				<stop  offset="0" style="stop-color:#EEEEEE"/>
				<stop  offset="0.5089" style="stop-color:#E9E9E9"/>
				<stop  offset="1" style="stop-color:#DEDEDE"/>
			</linearGradient>
			
				<path id="HOVER" style="fill-rule:evenodd;clip-rule:evenodd;fill:url(#HOVER_00000015337982178890428210000012155763707801815951_);" d="
				M731.82,21.16l0.26-0.07c44.91-12.03,91.14,14.6,103.27,59.46c-0.06,0.54-0.14,1.09-0.21,1.63c-3.97-6.61-8.49-12.88-13.6-18.65
				c-22.52-25.46-55.86-39.34-89.36-42.33L731.82,21.16z"/>
		</g>
		<path id="O_1_" class="st15" d="M645.99,38.64c18.87,10.9,25.35,35.06,14.45,53.93c-10.9,18.87-35.06,25.35-53.93,14.45
			c-18.87-10.9-25.35-35.06-14.45-53.93C602.95,34.22,627.12,27.75,645.99,38.64z M659.03,16.05c31.34,18.09,42.09,58.23,24,89.57
			c-18.09,31.34-58.23,42.09-89.57,24c-31.34-18.09-42.09-58.23-24-89.57C587.56,8.71,627.69-2.04,659.03,16.05z"/>
		
			<radialGradient id="O_00000022535790746308246980000006154715124189472170_" cx="613.9117" cy="39.3981" r="75.0265" fx="561.7081" fy="42.8294" gradientTransform="matrix(0.766 0.6429 -0.72 0.8579 172.0269 -389.0555)" gradientUnits="userSpaceOnUse">
			<stop  offset="0.4616" style="stop-color:#EEEEEE"/>
			<stop  offset="0.7433" style="stop-color:#E8E8E8;stop-opacity:0.4769"/>
			<stop  offset="1" style="stop-color:#DEDEDE;stop-opacity:0"/>
		</radialGradient>
		
			<path id="O_4_" style="fill-rule:evenodd;clip-rule:evenodd;fill:url(#O_00000022535790746308246980000006154715124189472170_);" d="
			M592.06,53.1c-10.9,18.87-4.42,43.04,14.45,53.93c18.87,10.89,43.35,4.28,53.93-14.45c4.71-8.39,9.49-7.29,13.44-3.26
			c7.84,8.02,7.38,20.92-0.4,29.01c-20.41,21.21-53.39,26.67-80.02,11.29c-31.34-18.09-42.09-58.23-24-89.57
			c18.09-31.34,58.23-42.09,89.57-24c1.18,0.68,2.34,1.4,3.46,2.14C662.49,18.19,606.26,26.45,592.06,53.1z"/>
		<g id="INVIV_1_">
			<path id="INVIV" class="st15" d="M77.55,7.27h13.92c3.62,0,6.55,2.93,6.55,6.56v118.02c0,3.62-2.93,6.56-6.55,6.56H77.55
				c-3.62,0-6.55-2.94-6.55-6.56V13.83C71,10.2,73.93,7.27,77.55,7.27z M229.89,138.4h-13.1c-3.62,0-6.55-2.94-6.55-6.56l0.31-57.13
				c0-22.68-11.36-41.06-34.03-41.06c-22.67,0-34.03,18.38-34.03,41.06l-0.24,57.13c0,3.62-2.93,6.56-6.55,6.56h-13.1
				c-3.62,0-6.55-2.94-6.55-6.56l0.33-64.59c0,0,0.83-59.73,60.14-59.73s60.14,59.73,60.14,59.73l-0.22,64.59
				C236.44,135.47,233.5,138.4,229.89,138.4z M373.61,15.14l-58.6,115.33c0,0-2.61,7.94-13.05,7.94c-10.44,0-13.07-7.94-13.07-7.94
				l-50.03-117.6c-0.35-2.9,1.48-5.43,4.35-5.43l14.14-0.16c3.24,0.48,6.44,2.39,8.23,5.13L303,100.83c0,0,30.7-60.44,44.86-88.18
				l1.21-2.3c2.24-1.96,5.29-3.11,8.16-3.04l12.48,0.12c3.04,0,4.91,2.85,4.26,5.96L373.61,15.14z M419.9,131.85
				c0,3.62-2.93,6.56-6.55,6.56h-13.92c-3.62,0-6.55-2.94-6.55-6.56V13.83c0-3.62,2.93-6.56,6.55-6.56h13.92
				c3.62,0,6.55,2.93,6.55,6.56V131.85z M567.64,15.14l-58.54,115.33c0,0-2.6,7.94-13.03,7.94c-10.43,0-13.05-7.94-13.05-7.94
				l-49.97-117.6c-0.35-2.9,1.48-5.43,4.34-5.43l14.12-0.16c3.24,0.48,6.43,2.39,8.23,5.13l37.37,88.43c0,0,30.66-60.44,44.81-88.18
				l1.2-2.3c2.24-1.96,5.28-3.11,8.15-3.04l12.47,0.12c3.04,0,4.91,2.85,4.26,5.96L567.64,15.14z"/>
			<g id="INVIV_SHADOW">
				<defs>
					<path id="N_SHADOW" d="M142.57,71.49c0.56-27.75,22.18-50.1,48.73-50.1c18.34,0,33.75,10.66,41.79,26.4
						c3.45,10.76,3.57,19.46,3.57,19.46l-0.22,64.59c0,3.62-2.93,6.56-6.55,6.56h-13.1c-3.62,0-6.55-2.94-6.55-6.56l0.31-57.13
						c0-22.68-11.36-41.06-34.03-41.06C154.93,33.66,143.6,50.32,142.57,71.49z"/>
				</defs>
				<defs>
					<path id="V_SHADOW_1_" d="M303,100.83c0,0,30.7-60.44,44.86-88.18l1.21-2.3c2.24-1.96,5.29-3.11,8.16-3.04l12.48,0.12
						c3.04,0,4.91,2.85,4.26,5.96l-0.37,1.75c0,0-42.55,83.56-45.71,89.96C315.01,130.47,303,100.83,303,100.83z"/>
				</defs>
				<defs>
					<path id="V_SHADOW" d="M542.03,12.7l1.21-2.3c2.24-1.96,5.29-3.11,8.16-3.04l12.48,0.12c3.04,0,4.92,2.85,4.26,5.96l-0.36,1.75
						c0,0-44.98,88.3-45.86,90.04c-13.53,26.75-24.3,0.34-24.8-4.42C497.12,100.82,527.86,40.44,542.03,12.7z"/>
				</defs>
				
					<linearGradient id="N_SHADOW_00000181780044873674245540000010260330204229417366_" gradientUnits="userSpaceOnUse" x1="142.5654" y1="79.8968" x2="236.6564" y2="79.8968">
					<stop  offset="0" style="stop-color:#DEDEDE"/>
					<stop  offset="0.5303" style="stop-color:#E4E4E4"/>
					<stop  offset="1" style="stop-color:#EEEEEE"/>
				</linearGradient>
				
					<use xlink:href="#N_SHADOW"  style="overflow:visible;fill-rule:evenodd;clip-rule:evenodd;fill:url(#N_SHADOW_00000181780044873674245540000010260330204229417366_);"/>
				
					<linearGradient id="V_SHADOW_00000075882888629123052650000001976464653717969343_" gradientUnits="userSpaceOnUse" x1="303.0014" y1="61.3339" x2="374.1061" y2="61.3339">
					<stop  offset="0" style="stop-color:#DEDEDE"/>
					<stop  offset="0.5303" style="stop-color:#E4E4E4"/>
					<stop  offset="1" style="stop-color:#EEEEEE"/>
				</linearGradient>
				
					<use xlink:href="#V_SHADOW_1_"  style="overflow:visible;fill-rule:evenodd;clip-rule:evenodd;fill:url(#V_SHADOW_00000075882888629123052650000001976464653717969343_);"/>
				
					<linearGradient id="V_SHADOW_00000084488297488716646070000009781465888582709654_" gradientUnits="userSpaceOnUse" x1="497.1153" y1="62.2006" x2="568.2674" y2="62.2006">
					<stop  offset="0" style="stop-color:#DEDEDE"/>
					<stop  offset="0.5303" style="stop-color:#E4E4E4"/>
					<stop  offset="1" style="stop-color:#EEEEEE"/>
				</linearGradient>
				
					<use xlink:href="#V_SHADOW"  style="overflow:visible;fill-rule:evenodd;clip-rule:evenodd;fill:url(#V_SHADOW_00000084488297488716646070000009781465888582709654_);"/>
				<clipPath id="N_SHADOW_00000116929648934626797850000006597146188921726853_">
					<use xlink:href="#N_SHADOW"  style="overflow:visible;"/>
				</clipPath>
				
					<clipPath id="V_SHADOW_00000100361008155918409580000006271279391759210624_" style="clip-path:url(#N_SHADOW_00000116929648934626797850000006597146188921726853_);">
					<use xlink:href="#V_SHADOW_1_"  style="overflow:visible;"/>
				</clipPath>
				
					<clipPath id="V_SHADOW_00000177474300851023538130000012196049307718002840_" style="clip-path:url(#V_SHADOW_00000100361008155918409580000006271279391759210624_);">
					<use xlink:href="#V_SHADOW"  style="overflow:visible;"/>
				</clipPath>
			</g>
		</g>
	</g>
</g>
</svg>
