<?xml version="1.0" encoding="utf-8"?>
<!-- Generator: Adobe Illustrator 23.0.3, SVG Export Plug-In . SVG Version: 6.00 Build 0)  -->
<svg version="1.1" id="Calque_1" xmlns="http://www.w3.org/2000/svg" xmlns:xlink="http://www.w3.org/1999/xlink" x="0px" y="0px"
	 viewBox="0 0 500 500" style="enable-background:new 0 0 500 500;" xml:space="preserve">
<style type="text/css">
	.st0{fill-rule:evenodd;clip-rule:evenodd;fill:#555454;}
	.st1{fill-rule:evenodd;clip-rule:evenodd;fill:url(#CRÊTE_2_);}
</style>
<g id="O_2">
	<path id="O" class="st0" d="M64.38,86.23c48,1.19,96.01,8.14,142.19,21.47C132.05,129.4,86.25,205.74,103.5,282.5
		c17.94,79.82,97.3,130.06,177.12,112.12c79.82-17.94,130.06-97.31,112.12-177.12c-0.33-1.49-0.69-2.98-1.07-4.45
		c35.77,34.73,65.23,75.34,88.32,119.58c-27.47,76.81-92.49,138.35-177.89,157.54C169.54,519.96,37.74,436.53,7.95,303.98
		C-10.11,223.59,13.46,143.48,64.38,86.23z"/>
	<linearGradient id="CRÊTE_2_" gradientUnits="userSpaceOnUse" x1="101.0398" y1="144.425" x2="498.0812" y2="144.425">
		<stop  offset="0" style="stop-color:#354194"/>
		<stop  offset="1" style="stop-color:#1E88C9"/>
	</linearGradient>
	<path id="CRÊTE_1_" class="st1" d="M101.04,55.43c27.68-21.51,60.42-37.41,96.86-45.6c132.55-29.79,264.36,53.64,294.15,186.19
		c6.77,30.11,7.69,60.18,3.53,89.03c-14.91-24.83-31.88-48.35-51.07-70.04c-84.54-95.57-209.73-147.7-335.48-158.91
		C106.36,55.87,103.71,55.64,101.04,55.43z"/>
</g>
</svg>
